<svg xmlns="http://www.w3.org/2000/svg" viewBox="0 0 196 196.1">
  <style>
    .st0{fill:#F15623;} .st1{fill:#CC2036;} .st2{fill:#CBE3EE;} .st3{fill:#4167B1;} .st4{fill:#E62F25;} .st5{fill:#FFFFFF;}
  </style>
  <g id="Layer_2">
    <path class="st0" d="M196 102.7c0 3.7-.2 7.4-.6 11l-13.6-1.5-17.4-1.9-71.1-7.7-3-71.5-.7-17.5L88.9.1c1.5-.1 2.9-.1 4.3-.1C150 0 196 46 196 102.7z"/>
    <path class="st1" d="M164.4 110.4c-3.6 34.2-31.3 61.1-65.8 63.7l-5.3-71.3 71.1 7.6z"/>
    <path class="st2" d="M100.2 195.9c-2.3.2-4.6.3-6.9.3-49.8 0-90.5-39-93.2-88.1l18.3-1 74.9-4.3 5.5 74.8 1.4 18.3z"/>
    <path class="st3" d="M93.2 102.7l-71.4 4.1-17.5 1c-.1-1.7-.2-3.4-.2-5.1 0-26.6 11.7-50.4 30.1-66.8L45.8 49l47.4 53.7z"/>
    <path class="st4" d="M93.2 102.7L45.9 49.1C57.8 38.6 73.3 32 90.2 31.2l3 71.5z"/>
  </g>
  <g id="_x3C_Layer_x3E_">
    <path class="st5" d="M107.2 71.9h-1.5v-2h-5.4v4.7h4.2v-1h1.3V77h-1.3v-1h-4.2v4.8h1.6v1.8H97v-1.8h1.5V70H97v-1.8h10.1v3.7zm11 8.4l-2.3 2.3h-4.8l-2.3-2.3v-9.9l2.2-2.2h5l2.2 2.2v9.9zm-6.5-10.4l-1.2 1.2v8.4l1.3 1.3h3.4l1.3-1.3v-8.4l-1.2-1.2h-3.6zm17.7 10.4l-2.3 2.3h-4.8l-2.3-2.3v-9.9l2.2-2.2h5l2.2 2.2v9.9zM123 69.9l-1.2 1.2v8.4l1.3 1.3h3.4l1.3-1.3v-8.4l-1.2-1.2H123zm18.3 2.5h-1.5v-2.5H137v11h1.7v1.8h-5.2v-1.8h1.7v-11h-2.8v2.5h-1.5v-4.2h10.5v4.2zm11.4 1.2l-1.3 1.3 1.4 1.4v4.1l-2.2 2.1h-8v-1.8h1.5V69.9h-1.5v-1.8h8l2 2v3.5zm-6.8-3.7v4.3h4l1-1V71l-1-1.1h-4zm0 5.9v5h4l1.1-1.1v-2.9l-1-1h-4.1zm17.9 5h1.6v1.8h-4.8v-1.8h1.3l-.7-2.6h-4.3l-.7 2.6h1.2v1.8H153v-1.8h1.6l3-10.9H156v-1.8h4.6l3.2 12.7zm-6.7-3.7h3.8l-1.9-7-1.9 7zm14.5-7.2H170v10.9h5.2v-2.3h1.5v4.1h-10.1v-1.8h1.5V69.9h-1.5v-1.8h4.9v1.8zm11.4 0h-1.6v10.9h5.2v-2.3h1.5v4.1H178v-1.8h1.5V69.9H178v-1.8h4.9v1.8z"/>
    <path class="st2" d="M55 54.8V56h-1v-.7l-.6-.6h-2l-.6.6v1.5l.5.4h2.9l1 1v2.7l-1.3 1.3H51l-1.3-1.3v-1.6h1.1v1.1l.7.7h2l.6-.7v-1.8l-.4-.5h-2.9l-1-1v-2.4l1.2-1.2h2.9l1.1 1.3zm6.8 6l-1.4 1.4h-2.8l-1.4-1.4v-5.9l1.3-1.3h2.9l1.3 1.3v5.9zm-3.9-6.1l-.7.7v5l.7.7h2l.7-.7v-5l-.6-.7h-2.1zm11 1.1H68v-1.2h-3.2v2.8h2.5v-.6h.8v1.9h-.8v-.6h-2.5V61h1v1.1h-2.9V61h.9v-6.4h-.9v-1.1h6v2.3zm6.8.3h-.9v-1.5h-1.7v6.5h1v1.1H71v-1.1h1v-6.5h-1.7v1.5h-.9v-2.5h6.2v2.5zm6.8.7l-.8.8.8.8v2.4l-1.3 1.3h-4.8V61h.9v-6.5h-.9v-1.1h4.8l1.2 1.2v2.2zm-4-2.1v2.5h2.4l.6-.6v-1.3l-.6-.6h-2.4zm0 3.4v3h2.4l.6-.7v-1.7l-.6-.6h-2.4zm10.6 3h1v1.1h-2.8v-1.1h.7l-.4-1.6H85l-.4 1.6h.7v1.1h-2.6v-1.1h.9l1.8-6.5h-1v-1.1h2.7l2 7.6zm-3.9-2.2h2.3l-1.1-4.2-1.2 4.2zm8.5-4.2h-.9v6.5h3.1v-1.4h.9v2.4h-6v-1.1h.9v-6.5h-.9v-1.1h2.9v1.2zm6.8 0h-.9v6.5h3.1v-1.4h.9v2.4h-6v-1.1h.9v-6.5h-.9v-1.1h2.9v1.2zm-83 38l-.9.9 1 1v2.9L16 99.1h-5.7v-1.3h1.1v-7.7h-1.1v-1.3H16l1.4 1.4v2.5zm-4.8-2.6v3h2.8l.7-.7v-1.6l-.7-.7h-2.8zm0 4.1v3.6h2.8l.8-.8v-2l-.7-.7h-2.9zm12.7 3.6h1.2v1.3h-3.4v-1.3h.8l-.5-1.9h-3.1l-.5 1.9h.9v1.3h-3.1v-1.3h1.1l2.1-7.7h-1.2v-1.3H23l2.4 9zm-4.8-2.6h2.7l-1.3-5-1.4 5zm12.7-4.9v1.4H32v-.9l-.7-.7h-2.4l-.7.7v1.8l.6.5h3.5l1.2 1.1v3.2L32 98.9h-3.4l-1.5-1.5v-1.9h1.3V97l.8.8h2.4l.8-.8v-2.1l-.5-.5h-3.5l-1.2-1.2v-2.9l1.4-1.4h3.5l1.2 1.4zm9.4-.2h-1.2l-2.2 2.5 2.4 5.2h1v1.3h-3.3v-1.3h1l-2-4.3-1.4 1.6v2.7h1v1.3h-3.3v-1.3h1.1v-7.7h-1.1v-1.3H38v1.3h-.9v3.7l3.3-3.7h-.8v-1.3h3.3v1.3zm8.3 1.4h-1v-1.4h-3.8v3.1h2.6v-.7h.9v2.3h-.9v-.7h-2.6v3.6H50v-1.4h1v2.6h-7.2v-1.3h1.1v-7.7h-1.1v-1.3H51v2.9zm8.4.3h-1.1V90h-2v7.8h1.2v1.3h-3.7v-1.3H55V90h-2v1.8h-1v-3h7.4v3zm8.1.9l-.9.9 1 1v2.9L66 99.1h-5.7v-1.3h1.1v-7.7h-1.1v-1.3H66l1.4 1.4v2.5zm-4.8-2.6v3h2.8l.7-.7v-1.6l-.7-.7h-2.8zm0 4.1v3.6h2.8l.8-.8v-2l-.7-.7h-2.9zm12.7 3.6h1.2v1.3h-3.4v-1.3h.9l-.5-1.9h-3.1l-.5 1.9h.9v1.3h-3.1v-1.3h1.1l2.1-7.7h-1.2v-1.3H73l2.4 9zm-4.8-2.6h2.7l-1.3-5-1.4 5zm10.3-5.1h-1.1v7.7h3.7v-1.6h1.1v2.9h-7.1v-1.3h1.1v-7.7h-1.1v-1.3h3.4v1.3zm8 0h-1.1v7.7h3.7v-1.6h1.1v2.9h-7.1v-1.3h1.1v-7.7h-1.1v-1.3h3.4v1.3z"/>
    <path class="st4" d="M20 136.3l-1.1 1.1 1.1 1.1v3.3l-1.7 1.7h-6.5v-1.4H13v-8.8h-1.2V132h6.5l1.6 1.6v2.7zm-5.5-2.9v3.5h3.2l.8-.8v-1.8l-.8-.8h-3.2zm0 4.7v4.1h3.2l.9-.9V139l-.8-.8h-3.3zm14.5 4.1h1.3v1.4h-3.9v-1.4h1l-.6-2.1h-3.5l-.6 2.1h1v1.4h-3.6v-1.4h1.3l2.4-8.8h-1.3V132h3.7l2.8 10.2zm-5.4-3.1h3.1l-1.5-5.6-1.6 5.6zm14.5-5.5v1.6h-1.4v-1l-.8-.8h-2.7l-.8.8v2.1l.6.6h4l1.3 1.3v3.7l-1.7 1.7h-3.9l-1.7-1.7v-2.1h1.4v1.5l.9.9H36l.9-.9v-2.4l-.6-.6h-4L31 137v-3.3l1.6-1.6h4l1.5 1.5zm9.7 1.4h-1.2v-1.6h-4.3v3.5h2.9v-.8h1v2.6h-1v-.7h-2.9v4.1h4.3v-1.6h1.2v3h-8.2v-1.4h1.2v-8.8h-1.2V132h8.2v3zm9.6 1.3l-1.1 1.1 1.1 1.1v3.3l-1.7 1.7h-6.5v-1.4h1.2v-8.8h-1.2V132h6.5l1.6 1.6v2.7zm-5.4-2.9v3.5h3.2l.8-.9v-1.8l-.8-.8H52zm0 4.7v4.1h3.2l.9-.9V139l-.8-.8H52zm14.4 4.1h1.3v1.4h-3.9v-1.4h1l-.6-2.1h-3.5l-.6 2.1h1v1.4h-3.6v-1.4h1.3l2.4-8.8H60V132h3.7l2.7 10.2zm-5.4-3.1h3.1l-1.5-5.6-1.6 5.6zm11.6-5.7h-1.3v8.8h4.2v-1.8h1.2v3.3h-8.1v-1.4h1.2v-8.8h-1.2V132h3.9v1.4zm9.2 0h-1.3v8.8h4.2v-1.8H86v3.3h-8.1v-1.4h1.2v-8.8h-1.2V132h3.9v1.4z"/>
    <path class="st2" d="M103.4 122.1l-.8.9.9.9v2.6l-1.4 1.4H97v-1.1h1v-6.9h-1v-1.1h5.1l1.3 1.3v2zm-4.3-2.3v2.7h2.5l.7-.7v-1.4l-.7-.7h-2.5zm0 3.7v3.2h2.5l.7-.7v-1.8l-.7-.7h-2.5zm11.4 3.2h1v1.1h-3v-1.1h.8l-.5-1.7H106l-.5 1.7h.8v1.1h-2.8v-1.1h1l1.9-6.9h-1v-1.1h2.9l2.2 8zm-4.3-2.4h2.4l-1.2-4.5-1.2 4.5zm11.4-4.3v1.3h-1.1v-.8l-.7-.7h-2.1l-.7.7v1.6l.5.5h3.1l1 1v2.9l-1.4 1.4h-3.1l-1.4-1.4v-1.7h1.1v1.2l.7.7h2.1l.7-.7v-1.9l-.5-.5H113l-1.1-1V120l1.3-1.3h3.1l1.3 1.3zm7.7 1h-1v-1.2h-3.4v2.8h2.3v-.6h.8v2.1h-.8v-.6h-2.3v3.3h3.4v-1.2h1v2.4h-6.5v-1.1h1V120h-1v-1.1h6.4v2.1zm7.6 1.1l-.8.9.9.9v2.6l-1.4 1.4h-5.1v-1.1h1v-6.9h-1v-1.1h5.1l1.3 1.3v2zm-4.3-2.3v2.7h2.5l.7-.7v-1.4l-.7-.7h-2.5zm0 3.7v3.2h2.5l.7-.7v-1.8l-.7-.7h-2.5zm11.4 3.2h1v1.1h-3v-1.1h.8l-.5-1.7h-2.8l-.5 1.7h.8v1.1H133v-1.1h1l1.9-6.9h-1v-1.1h2.9l2.2 8zm-4.3-2.4h2.4l-1.2-4.5-1.2 4.5zm9.2-4.5h-1v6.9h3.3v-1.5h1v2.6h-6.4v-1.1h1v-6.9h-1v-1.1h3.1v1.1zm7.3 0h-1v6.9h3.3v-1.5h1v2.6h-6.4v-1.1h1v-6.9h-1v-1.1h3.1v1.1z"/>
  </g>
</svg>
